<svg xmlns="http://www.w3.org/2000/svg" width="1000" height="660" viewBox="0 0 1000 660">
<rect width="100%" height="100%" fill="white"/>
<text x="500.0" y="48" text-anchor="middle" font-family="PingFang SC, Hiragino Sans GB, Helvetica, Arial, sans-serif" font-size="29" font-weight="700" fill="#333333">三种制造长边的方式</text>
<rect x="38" y="82" width="264" height="470" rx="16" fill="#FFFFFF" stroke="#DDE2E6" stroke-width="2"/>
<rect x="38" y="82" width="264" height="66" rx="16" fill="#E6F2FF" stroke="#1565C0" stroke-width="3"/>
<text x="170.0" y="114" text-anchor="middle" font-family="PingFang SC, Hiragino Sans GB, Helvetica, Arial, sans-serif" font-size="22" font-weight="700" fill="#1565C0">HNSW</text>
<text x="170.0" y="138" text-anchor="middle" font-family="PingFang SC, Hiragino Sans GB, Helvetica, Arial, sans-serif" font-size="14" font-weight="400" fill="#666666">分层结构</text>
<rect x="368" y="82" width="264" height="470" rx="16" fill="#FFFFFF" stroke="#DDE2E6" stroke-width="2"/>
<rect x="368" y="82" width="264" height="66" rx="16" fill="#E8F5E9" stroke="#2E7D32" stroke-width="3"/>
<text x="500.0" y="114" text-anchor="middle" font-family="PingFang SC, Hiragino Sans GB, Helvetica, Arial, sans-serif" font-size="22" font-weight="700" fill="#2E7D32">NSG</text>
<text x="500.0" y="138" text-anchor="middle" font-family="PingFang SC, Hiragino Sans GB, Helvetica, Arial, sans-serif" font-size="14" font-weight="400" fill="#666666">搜索路径候选</text>
<rect x="698" y="82" width="264" height="470" rx="16" fill="#FFFFFF" stroke="#DDE2E6" stroke-width="2"/>
<rect x="698" y="82" width="264" height="66" rx="16" fill="#FFF3E0" stroke="#E65100" stroke-width="3"/>
<text x="830.0" y="114" text-anchor="middle" font-family="PingFang SC, Hiragino Sans GB, Helvetica, Arial, sans-serif" font-size="22" font-weight="700" fill="#E65100">Vamana</text>
<text x="830.0" y="138" text-anchor="middle" font-family="PingFang SC, Hiragino Sans GB, Helvetica, Arial, sans-serif" font-size="14" font-weight="400" fill="#666666">α 剪枝判据</text>
<ellipse cx="180.0" cy="200" rx="110.0" ry="16" fill="#F7F9FA" stroke="#DDE2E6" stroke-width="1.5"/>
<line x1="92.0" y1="200" x2="272.0" y2="200" stroke="#1565C0" stroke-width="3"/>
<circle cx="92.0" cy="200" r="5.5" fill="#E6F2FF" stroke="#1565C0" stroke-width="2"/>
<circle cx="272.0" cy="200" r="5.5" fill="#E6F2FF" stroke="#1565C0" stroke-width="2"/>
<text x="52" y="205" text-anchor="start" font-family="PingFang SC, Hiragino Sans GB, Helvetica, Arial, sans-serif" font-size="12.5" font-weight="700" fill="#8A9199">L2</text>
<ellipse cx="180.0" cy="268" rx="110.0" ry="16" fill="#F7F9FA" stroke="#DDE2E6" stroke-width="1.5"/>
<line x1="92.0" y1="268" x2="137.0" y2="268" stroke="#1565C0" stroke-width="3"/>
<line x1="137.0" y1="268" x2="182.0" y2="268" stroke="#1565C0" stroke-width="3"/>
<line x1="182.0" y1="268" x2="227.0" y2="268" stroke="#1565C0" stroke-width="3"/>
<line x1="227.0" y1="268" x2="272.0" y2="268" stroke="#1565C0" stroke-width="3"/>
<circle cx="92.0" cy="268" r="5.5" fill="#E6F2FF" stroke="#1565C0" stroke-width="2"/>
<circle cx="137.0" cy="268" r="5.5" fill="#E6F2FF" stroke="#1565C0" stroke-width="2"/>
<circle cx="182.0" cy="268" r="5.5" fill="#E6F2FF" stroke="#1565C0" stroke-width="2"/>
<circle cx="227.0" cy="268" r="5.5" fill="#E6F2FF" stroke="#1565C0" stroke-width="2"/>
<circle cx="272.0" cy="268" r="5.5" fill="#E6F2FF" stroke="#1565C0" stroke-width="2"/>
<text x="52" y="273" text-anchor="start" font-family="PingFang SC, Hiragino Sans GB, Helvetica, Arial, sans-serif" font-size="12.5" font-weight="700" fill="#8A9199">L1</text>
<ellipse cx="180.0" cy="336" rx="110.0" ry="16" fill="#F7F9FA" stroke="#DDE2E6" stroke-width="1.5"/>
<line x1="92.0" y1="336" x2="110.0" y2="336" stroke="#C3CBD1" stroke-width="1.8"/>
<line x1="110.0" y1="336" x2="128.0" y2="336" stroke="#C3CBD1" stroke-width="1.8"/>
<line x1="128.0" y1="336" x2="146.0" y2="336" stroke="#C3CBD1" stroke-width="1.8"/>
<line x1="146.0" y1="336" x2="164.0" y2="336" stroke="#C3CBD1" stroke-width="1.8"/>
<line x1="164.0" y1="336" x2="182.0" y2="336" stroke="#C3CBD1" stroke-width="1.8"/>
<line x1="182.0" y1="336" x2="200.0" y2="336" stroke="#C3CBD1" stroke-width="1.8"/>
<line x1="200.0" y1="336" x2="218.0" y2="336" stroke="#C3CBD1" stroke-width="1.8"/>
<line x1="218.0" y1="336" x2="236.0" y2="336" stroke="#C3CBD1" stroke-width="1.8"/>
<line x1="236.0" y1="336" x2="254.0" y2="336" stroke="#C3CBD1" stroke-width="1.8"/>
<line x1="254.0" y1="336" x2="272.0" y2="336" stroke="#C3CBD1" stroke-width="1.8"/>
<circle cx="92.0" cy="336" r="5.5" fill="#E6F2FF" stroke="#1565C0" stroke-width="2"/>
<circle cx="110.0" cy="336" r="5.5" fill="#E6F2FF" stroke="#1565C0" stroke-width="2"/>
<circle cx="128.0" cy="336" r="5.5" fill="#E6F2FF" stroke="#1565C0" stroke-width="2"/>
<circle cx="146.0" cy="336" r="5.5" fill="#E6F2FF" stroke="#1565C0" stroke-width="2"/>
<circle cx="164.0" cy="336" r="5.5" fill="#E6F2FF" stroke="#1565C0" stroke-width="2"/>
<circle cx="182.0" cy="336" r="5.5" fill="#E6F2FF" stroke="#1565C0" stroke-width="2"/>
<circle cx="200.0" cy="336" r="5.5" fill="#E6F2FF" stroke="#1565C0" stroke-width="2"/>
<circle cx="218.0" cy="336" r="5.5" fill="#E6F2FF" stroke="#1565C0" stroke-width="2"/>
<circle cx="236.0" cy="336" r="5.5" fill="#E6F2FF" stroke="#1565C0" stroke-width="2"/>
<circle cx="254.0" cy="336" r="5.5" fill="#E6F2FF" stroke="#1565C0" stroke-width="2"/>
<circle cx="272.0" cy="336" r="5.5" fill="#E6F2FF" stroke="#1565C0" stroke-width="2"/>
<text x="52" y="341" text-anchor="start" font-family="PingFang SC, Hiragino Sans GB, Helvetica, Arial, sans-serif" font-size="12.5" font-weight="700" fill="#8A9199">L0</text>
<line x1="92.0" y1="200" x2="92.0" y2="268" stroke="#C3CBD1" stroke-width="1.5" stroke-dasharray="4,4"/>
<line x1="272.0" y1="200" x2="272.0" y2="268" stroke="#C3CBD1" stroke-width="1.5" stroke-dasharray="4,4"/>
<line x1="92.0" y1="268" x2="92.0" y2="336" stroke="#C3CBD1" stroke-width="1.5" stroke-dasharray="4,4"/>
<line x1="137.0" y1="268" x2="128.0" y2="336" stroke="#C3CBD1" stroke-width="1.5" stroke-dasharray="4,4"/>
<line x1="182.0" y1="268" x2="182.0" y2="336" stroke="#C3CBD1" stroke-width="1.5" stroke-dasharray="4,4"/>
<line x1="227.0" y1="268" x2="218.0" y2="336" stroke="#C3CBD1" stroke-width="1.5" stroke-dasharray="4,4"/>
<line x1="272.0" y1="268" x2="272.0" y2="336" stroke="#C3CBD1" stroke-width="1.5" stroke-dasharray="4,4"/>
<line x1="78" y1="172" x2="86.70722716526383" y2="186.5120452754397" stroke="#1565C0" stroke-width="2.5"/>
<polygon points="90.0,192.0 83.1,188.0 89.7,184.0" fill="#1565C0"/>
<text x="112" y="174" text-anchor="start" font-family="PingFang SC, Hiragino Sans GB, Helvetica, Arial, sans-serif" font-size="12.5" font-weight="700" fill="#1565C0">入口在顶层</text>
<text x="170.0" y="388" text-anchor="middle" font-family="PingFang SC, Hiragino Sans GB, Helvetica, Arial, sans-serif" font-size="14" font-weight="400" fill="#666666">上层是稀疏子采样</text>
<text x="170.0" y="410" text-anchor="middle" font-family="PingFang SC, Hiragino Sans GB, Helvetica, Arial, sans-serif" font-size="14" font-weight="400" fill="#666666">上层的「最近邻边」天然就是长边</text>
<line x1="432" y1="226" x2="462.0963349355014" y2="212.17608831591804" stroke="#DCE1E5" stroke-width="1.4"/>
<line x1="432" y1="226" x2="402.62340359961826" y2="259.30421772725094" stroke="#DCE1E5" stroke-width="1.4"/>
<line x1="432" y1="226" x2="478" y2="266" stroke="#DCE1E5" stroke-width="1.4"/>
<line x1="478" y1="266" x2="469.93623037131886" y2="299.11363687834023" stroke="#DCE1E5" stroke-width="1.4"/>
<line x1="478" y1="266" x2="500.99649408012226" y2="235.54591997533305" stroke="#DCE1E5" stroke-width="1.4"/>
<line x1="478" y1="266" x2="524" y2="292" stroke="#DCE1E5" stroke-width="1.4"/>
<line x1="524" y1="292" x2="515.8300790027421" y2="322.4372982716793" stroke="#DCE1E5" stroke-width="1.4"/>
<line x1="524" y1="292" x2="560.3394431828718" y2="284.19229817621635" stroke="#DCE1E5" stroke-width="1.4"/>
<line x1="524" y1="292" x2="478" y2="266" stroke="#DCE1E5" stroke-width="1.4"/>
<line x1="568" y1="334" x2="578.144736356766" y2="362.6573007890085" stroke="#DCE1E5" stroke-width="1.4"/>
<line x1="568" y1="334" x2="597.5219969383859" y2="324.0090443465371" stroke="#DCE1E5" stroke-width="1.4"/>
<line x1="568" y1="334" x2="542.7461429561347" y2="368.73691961840507" stroke="#DCE1E5" stroke-width="1.4"/>
<line x1="434.3300980473068" y1="315.3989786622918" x2="406.60612946619483" y2="298.48883075569466" stroke="#DCE1E5" stroke-width="1.4"/>
<line x1="434.3300980473068" y1="315.3989786622918" x2="469.93623037131886" y2="299.11363687834023" stroke="#DCE1E5" stroke-width="1.4"/>
<line x1="434.3300980473068" y1="315.3989786622918" x2="426.4759118444333" y2="357.3181199091726" stroke="#DCE1E5" stroke-width="1.4"/>
<line x1="560.3394431828718" y1="284.19229817621635" x2="524" y2="292" stroke="#DCE1E5" stroke-width="1.4"/>
<line x1="560.3394431828718" y1="284.19229817621635" x2="588.5849669563063" y2="258.8466087884266" stroke="#DCE1E5" stroke-width="1.4"/>
<line x1="560.3394431828718" y1="284.19229817621635" x2="557.5752002839652" y2="234.87647809224666" stroke="#DCE1E5" stroke-width="1.4"/>
<line x1="500.99649408012226" y1="235.54591997533305" x2="516.7310494476964" y2="206.19059832026278" stroke="#DCE1E5" stroke-width="1.4"/>
<line x1="500.99649408012226" y1="235.54591997533305" x2="478" y2="266" stroke="#DCE1E5" stroke-width="1.4"/>
<line x1="500.99649408012226" y1="235.54591997533305" x2="462.0963349355014" y2="212.17608831591804" stroke="#DCE1E5" stroke-width="1.4"/>
<line x1="402.62340359961826" y1="259.30421772725094" x2="406.60612946619483" y2="298.48883075569466" stroke="#DCE1E5" stroke-width="1.4"/>
<line x1="402.62340359961826" y1="259.30421772725094" x2="432" y2="226" stroke="#DCE1E5" stroke-width="1.4"/>
<line x1="402.62340359961826" y1="259.30421772725094" x2="434.3300980473068" y2="315.3989786622918" stroke="#DCE1E5" stroke-width="1.4"/>
<line x1="516.7310494476964" y1="206.19059832026278" x2="500.99649408012226" y2="235.54591997533305" stroke="#DCE1E5" stroke-width="1.4"/>
<line x1="516.7310494476964" y1="206.19059832026278" x2="566.0517662796693" y2="203.1825585825895" stroke="#DCE1E5" stroke-width="1.4"/>
<line x1="516.7310494476964" y1="206.19059832026278" x2="557.5752002839652" y2="234.87647809224666" stroke="#DCE1E5" stroke-width="1.4"/>
<line x1="557.5752002839652" y1="234.87647809224666" x2="566.0517662796693" y2="203.1825585825895" stroke="#DCE1E5" stroke-width="1.4"/>
<line x1="557.5752002839652" y1="234.87647809224666" x2="588.5849669563063" y2="258.8466087884266" stroke="#DCE1E5" stroke-width="1.4"/>
<line x1="557.5752002839652" y1="234.87647809224666" x2="560.3394431828718" y2="284.19229817621635" stroke="#DCE1E5" stroke-width="1.4"/>
<line x1="597.5219969383859" y1="324.0090443465371" x2="568" y2="334" stroke="#DCE1E5" stroke-width="1.4"/>
<line x1="597.5219969383859" y1="324.0090443465371" x2="578.144736356766" y2="362.6573007890085" stroke="#DCE1E5" stroke-width="1.4"/>
<line x1="597.5219969383859" y1="324.0090443465371" x2="560.3394431828718" y2="284.19229817621635" stroke="#DCE1E5" stroke-width="1.4"/>
<line x1="588.5849669563063" y1="258.8466087884266" x2="560.3394431828718" y2="284.19229817621635" stroke="#DCE1E5" stroke-width="1.4"/>
<line x1="588.5849669563063" y1="258.8466087884266" x2="557.5752002839652" y2="234.87647809224666" stroke="#DCE1E5" stroke-width="1.4"/>
<line x1="588.5849669563063" y1="258.8466087884266" x2="566.0517662796693" y2="203.1825585825895" stroke="#DCE1E5" stroke-width="1.4"/>
<line x1="426.4759118444333" y1="357.3181199091726" x2="434.3300980473068" y2="315.3989786622918" stroke="#DCE1E5" stroke-width="1.4"/>
<line x1="426.4759118444333" y1="357.3181199091726" x2="470.2486251845738" y2="357.164954978962" stroke="#DCE1E5" stroke-width="1.4"/>
<line x1="426.4759118444333" y1="357.3181199091726" x2="406.60612946619483" y2="298.48883075569466" stroke="#DCE1E5" stroke-width="1.4"/>
<line x1="515.8300790027421" y1="322.4372982716793" x2="524" y2="292" stroke="#DCE1E5" stroke-width="1.4"/>
<line x1="515.8300790027421" y1="322.4372982716793" x2="469.93623037131886" y2="299.11363687834023" stroke="#DCE1E5" stroke-width="1.4"/>
<line x1="515.8300790027421" y1="322.4372982716793" x2="568" y2="334" stroke="#DCE1E5" stroke-width="1.4"/>
<line x1="542.7461429561347" y1="368.73691961840507" x2="578.144736356766" y2="362.6573007890085" stroke="#DCE1E5" stroke-width="1.4"/>
<line x1="542.7461429561347" y1="368.73691961840507" x2="568" y2="334" stroke="#DCE1E5" stroke-width="1.4"/>
<line x1="542.7461429561347" y1="368.73691961840507" x2="515.8300790027421" y2="322.4372982716793" stroke="#DCE1E5" stroke-width="1.4"/>
<line x1="470.2486251845738" y1="357.164954978962" x2="426.4759118444333" y2="357.3181199091726" stroke="#DCE1E5" stroke-width="1.4"/>
<line x1="470.2486251845738" y1="357.164954978962" x2="434.3300980473068" y2="315.3989786622918" stroke="#DCE1E5" stroke-width="1.4"/>
<line x1="470.2486251845738" y1="357.164954978962" x2="515.8300790027421" y2="322.4372982716793" stroke="#DCE1E5" stroke-width="1.4"/>
<line x1="469.93623037131886" y1="299.11363687834023" x2="478" y2="266" stroke="#DCE1E5" stroke-width="1.4"/>
<line x1="469.93623037131886" y1="299.11363687834023" x2="434.3300980473068" y2="315.3989786622918" stroke="#DCE1E5" stroke-width="1.4"/>
<line x1="469.93623037131886" y1="299.11363687834023" x2="515.8300790027421" y2="322.4372982716793" stroke="#DCE1E5" stroke-width="1.4"/>
<line x1="462.0963349355014" y1="212.17608831591804" x2="432" y2="226" stroke="#DCE1E5" stroke-width="1.4"/>
<line x1="462.0963349355014" y1="212.17608831591804" x2="500.99649408012226" y2="235.54591997533305" stroke="#DCE1E5" stroke-width="1.4"/>
<line x1="462.0963349355014" y1="212.17608831591804" x2="516.7310494476964" y2="206.19059832026278" stroke="#DCE1E5" stroke-width="1.4"/>
<line x1="578.144736356766" y1="362.6573007890085" x2="568" y2="334" stroke="#DCE1E5" stroke-width="1.4"/>
<line x1="578.144736356766" y1="362.6573007890085" x2="542.7461429561347" y2="368.73691961840507" stroke="#DCE1E5" stroke-width="1.4"/>
<line x1="578.144736356766" y1="362.6573007890085" x2="597.5219969383859" y2="324.0090443465371" stroke="#DCE1E5" stroke-width="1.4"/>
<line x1="566.0517662796693" y1="203.1825585825895" x2="595.8849018080688" y2="195.12384781606005" stroke="#DCE1E5" stroke-width="1.4"/>
<line x1="566.0517662796693" y1="203.1825585825895" x2="557.5752002839652" y2="234.87647809224666" stroke="#DCE1E5" stroke-width="1.4"/>
<line x1="566.0517662796693" y1="203.1825585825895" x2="516.7310494476964" y2="206.19059832026278" stroke="#DCE1E5" stroke-width="1.4"/>
<line x1="406.60612946619483" y1="298.48883075569466" x2="434.3300980473068" y2="315.3989786622918" stroke="#DCE1E5" stroke-width="1.4"/>
<line x1="406.60612946619483" y1="298.48883075569466" x2="402.62340359961826" y2="259.30421772725094" stroke="#DCE1E5" stroke-width="1.4"/>
<line x1="406.60612946619483" y1="298.48883075569466" x2="426.4759118444333" y2="357.3181199091726" stroke="#DCE1E5" stroke-width="1.4"/>
<line x1="595.8849018080688" y1="195.12384781606005" x2="566.0517662796693" y2="203.1825585825895" stroke="#DCE1E5" stroke-width="1.4"/>
<line x1="595.8849018080688" y1="195.12384781606005" x2="557.5752002839652" y2="234.87647809224666" stroke="#DCE1E5" stroke-width="1.4"/>
<line x1="595.8849018080688" y1="195.12384781606005" x2="588.5849669563063" y2="258.8466087884266" stroke="#DCE1E5" stroke-width="1.4"/>
<line x1="432" y1="226" x2="465.0207850187877" y2="254.71372610329365" stroke="#2E7D32" stroke-width="3"/>
<polygon points="470.5,259.4 461.7,257.5 467.3,251.0" fill="#2E7D32"/>
<line x1="478" y1="266" x2="509.0263191740136" y2="283.5366151853121" stroke="#2E7D32" stroke-width="3"/>
<polygon points="515.3,287.1 506.3,287.0 510.6,279.4" fill="#2E7D32"/>
<line x1="524" y1="292" x2="555.5582846407306" y2="322.123817157061" stroke="#2E7D32" stroke-width="3"/>
<polygon points="560.8,327.1 552.1,324.8 558.1,318.5" fill="#2E7D32"/>
<circle cx="434.3300980473068" cy="315.3989786622918" r="5" fill="#E4E9ED" stroke="#B9C2C9" stroke-width="1.5"/>
<circle cx="560.3394431828718" cy="284.19229817621635" r="5" fill="#E4E9ED" stroke="#B9C2C9" stroke-width="1.5"/>
<circle cx="500.99649408012226" cy="235.54591997533305" r="5" fill="#E4E9ED" stroke="#B9C2C9" stroke-width="1.5"/>
<circle cx="402.62340359961826" cy="259.30421772725094" r="5" fill="#E4E9ED" stroke="#B9C2C9" stroke-width="1.5"/>
<circle cx="516.7310494476964" cy="206.19059832026278" r="5" fill="#E4E9ED" stroke="#B9C2C9" stroke-width="1.5"/>
<circle cx="557.5752002839652" cy="234.87647809224666" r="5" fill="#E4E9ED" stroke="#B9C2C9" stroke-width="1.5"/>
<circle cx="597.5219969383859" cy="324.0090443465371" r="5" fill="#E4E9ED" stroke="#B9C2C9" stroke-width="1.5"/>
<circle cx="588.5849669563063" cy="258.8466087884266" r="5" fill="#E4E9ED" stroke="#B9C2C9" stroke-width="1.5"/>
<circle cx="426.4759118444333" cy="357.3181199091726" r="5" fill="#E4E9ED" stroke="#B9C2C9" stroke-width="1.5"/>
<circle cx="515.8300790027421" cy="322.4372982716793" r="5" fill="#E4E9ED" stroke="#B9C2C9" stroke-width="1.5"/>
<circle cx="542.7461429561347" cy="368.73691961840507" r="5" fill="#E4E9ED" stroke="#B9C2C9" stroke-width="1.5"/>
<circle cx="470.2486251845738" cy="357.164954978962" r="5" fill="#E4E9ED" stroke="#B9C2C9" stroke-width="1.5"/>
<circle cx="469.93623037131886" cy="299.11363687834023" r="5" fill="#E4E9ED" stroke="#B9C2C9" stroke-width="1.5"/>
<circle cx="462.0963349355014" cy="212.17608831591804" r="5" fill="#E4E9ED" stroke="#B9C2C9" stroke-width="1.5"/>
<circle cx="578.144736356766" cy="362.6573007890085" r="5" fill="#E4E9ED" stroke="#B9C2C9" stroke-width="1.5"/>
<circle cx="566.0517662796693" cy="203.1825585825895" r="5" fill="#E4E9ED" stroke="#B9C2C9" stroke-width="1.5"/>
<circle cx="406.60612946619483" cy="298.48883075569466" r="5" fill="#E4E9ED" stroke="#B9C2C9" stroke-width="1.5"/>
<circle cx="595.8849018080688" cy="195.12384781606005" r="5" fill="#E4E9ED" stroke="#B9C2C9" stroke-width="1.5"/>
<circle cx="478" cy="266" r="7.5" fill="#E8F5E9" stroke="#2E7D32" stroke-width="2.5"/>
<circle cx="524" cy="292" r="7.5" fill="#E8F5E9" stroke="#2E7D32" stroke-width="2.5"/>
<circle cx="568" cy="334" r="7.5" fill="#E8F5E9" stroke="#2E7D32" stroke-width="2.5"/>
<circle cx="432" cy="226" r="11" fill="#E8F5E9" stroke="#2E7D32" stroke-width="3.5"/>
<rect x="406.2" y="192.2" width="55.5" height="19.4" rx="7" fill="#FFFFFF" fill-opacity="0.9"/>
<text x="434" y="206.5" text-anchor="middle" font-family="PingFang SC, Hiragino Sans GB, Helvetica, Arial, sans-serif" font-size="12.5" font-weight="700" fill="#2E7D32">medoid</text>
<rect x="561.2" y="290.2" width="49.5" height="19.4" rx="7" fill="#FFFFFF" fill-opacity="0.9"/>
<text x="586" y="304.5" text-anchor="middle" font-family="PingFang SC, Hiragino Sans GB, Helvetica, Arial, sans-serif" font-size="12.5" font-weight="700" fill="#2E7D32">目标点</text>
<text x="500.0" y="388" text-anchor="middle" font-family="PingFang SC, Hiragino Sans GB, Helvetica, Arial, sans-serif" font-size="14" font-weight="400" fill="#666666">从固定入口搜一遍</text>
<text x="500.0" y="410" text-anchor="middle" font-family="PingFang SC, Hiragino Sans GB, Helvetica, Arial, sans-serif" font-size="14" font-weight="400" fill="#666666">把「访问过的所有点」当候选池</text>
<line x1="823.045383269224" y1="258.20965219994724" x2="807.217483632353" y2="278.5744187230808" stroke="#DCE1E5" stroke-width="1.4"/>
<line x1="823.045383269224" y1="258.20965219994724" x2="840.2028480175178" y2="300.0638073415824" stroke="#DCE1E5" stroke-width="1.4"/>
<line x1="762.0454095527176" y1="343.0486381976507" x2="773.5028455648909" y2="346.4607537456357" stroke="#DCE1E5" stroke-width="1.4"/>
<line x1="762.0454095527176" y1="343.0486381976507" x2="788.862670035899" y2="333.2358405249528" stroke="#DCE1E5" stroke-width="1.4"/>
<line x1="737.2097901672512" y1="280.4785177689798" x2="740.4148338772793" y2="267.0527605014457" stroke="#DCE1E5" stroke-width="1.4"/>
<line x1="737.2097901672512" y1="280.4785177689798" x2="743.6884039111445" y2="259.1913719560149" stroke="#DCE1E5" stroke-width="1.4"/>
<line x1="904.8800183660044" y1="207.90011931547616" x2="906.4051976795312" y2="213.2719586626452" stroke="#DCE1E5" stroke-width="1.4"/>
<line x1="904.8800183660044" y1="207.90011931547616" x2="901.3221594192332" y2="203.42376925110656" stroke="#DCE1E5" stroke-width="1.4"/>
<line x1="840.2028480175178" y1="300.0638073415824" x2="847.0005499415515" y2="327.1640283645079" stroke="#DCE1E5" stroke-width="1.4"/>
<line x1="840.2028480175178" y1="300.0638073415824" x2="862.7563682360098" y2="318.8214925855044" stroke="#DCE1E5" stroke-width="1.4"/>
<line x1="743.6884039111445" y1="259.1913719560149" x2="740.4148338772793" y2="267.0527605014457" stroke="#DCE1E5" stroke-width="1.4"/>
<line x1="743.6884039111445" y1="259.1913719560149" x2="755.1138542649419" y2="244.08262958566203" stroke="#DCE1E5" stroke-width="1.4"/>
<line x1="868.2543137512245" y1="271.7475983174044" x2="840.2028480175178" y2="300.0638073415824" stroke="#DCE1E5" stroke-width="1.4"/>
<line x1="868.2543137512245" y1="271.7475983174044" x2="823.045383269224" y2="258.20965219994724" stroke="#DCE1E5" stroke-width="1.4"/>
<line x1="872.3122892934553" y1="221.03103179461965" x2="901.3221594192332" y2="203.42376925110656" stroke="#DCE1E5" stroke-width="1.4"/>
<line x1="872.3122892934553" y1="221.03103179461965" x2="906.4051976795312" y2="213.2719586626452" stroke="#DCE1E5" stroke-width="1.4"/>
<line x1="780.7462940637082" y1="213.0829748122185" x2="786.1459113906272" y2="230.10110238347485" stroke="#DCE1E5" stroke-width="1.4"/>
<line x1="780.7462940637082" y1="213.0829748122185" x2="815.2900142613075" y2="209.08652988734693" stroke="#DCE1E5" stroke-width="1.4"/>
<line x1="831.1785817137686" y1="352.8987232629148" x2="847.0005499415515" y2="327.1640283645079" stroke="#DCE1E5" stroke-width="1.4"/>
<line x1="831.1785817137686" y1="352.8987232629148" x2="808.1289908322979" y2="322.32837731100176" stroke="#DCE1E5" stroke-width="1.4"/>
<line x1="847.0005499415515" y1="327.1640283645079" x2="862.7563682360098" y2="318.8214925855044" stroke="#DCE1E5" stroke-width="1.4"/>
<line x1="847.0005499415515" y1="327.1640283645079" x2="840.2028480175178" y2="300.0638073415824" stroke="#DCE1E5" stroke-width="1.4"/>
<line x1="808.1289908322979" y1="322.32837731100176" x2="788.862670035899" y2="333.2358405249528" stroke="#DCE1E5" stroke-width="1.4"/>
<line x1="808.1289908322979" y1="322.32837731100176" x2="831.1785817137686" y2="352.8987232629148" stroke="#DCE1E5" stroke-width="1.4"/>
<line x1="755.1138542649419" y1="244.08262958566203" x2="743.6884039111445" y2="259.1913719560149" stroke="#DCE1E5" stroke-width="1.4"/>
<line x1="755.1138542649419" y1="244.08262958566203" x2="740.4148338772793" y2="267.0527605014457" stroke="#DCE1E5" stroke-width="1.4"/>
<line x1="862.7563682360098" y1="318.8214925855044" x2="847.0005499415515" y2="327.1640283645079" stroke="#DCE1E5" stroke-width="1.4"/>
<line x1="862.7563682360098" y1="318.8214925855044" x2="840.2028480175178" y2="300.0638073415824" stroke="#DCE1E5" stroke-width="1.4"/>
<line x1="815.2900142613075" y1="209.08652988734693" x2="780.7462940637082" y2="213.0829748122185" stroke="#DCE1E5" stroke-width="1.4"/>
<line x1="815.2900142613075" y1="209.08652988734693" x2="786.1459113906272" y2="230.10110238347485" stroke="#DCE1E5" stroke-width="1.4"/>
<line x1="786.1459113906272" y1="230.10110238347485" x2="780.7462940637082" y2="213.0829748122185" stroke="#DCE1E5" stroke-width="1.4"/>
<line x1="786.1459113906272" y1="230.10110238347485" x2="755.1138542649419" y2="244.08262958566203" stroke="#DCE1E5" stroke-width="1.4"/>
<line x1="788.862670035899" y1="333.2358405249528" x2="773.5028455648909" y2="346.4607537456357" stroke="#DCE1E5" stroke-width="1.4"/>
<line x1="788.862670035899" y1="333.2358405249528" x2="808.1289908322979" y2="322.32837731100176" stroke="#DCE1E5" stroke-width="1.4"/>
<line x1="773.5028455648909" y1="346.4607537456357" x2="762.0454095527176" y2="343.0486381976507" stroke="#DCE1E5" stroke-width="1.4"/>
<line x1="773.5028455648909" y1="346.4607537456357" x2="788.862670035899" y2="333.2358405249528" stroke="#DCE1E5" stroke-width="1.4"/>
<line x1="901.3221594192332" y1="203.42376925110656" x2="904.8800183660044" y2="207.90011931547616" stroke="#DCE1E5" stroke-width="1.4"/>
<line x1="901.3221594192332" y1="203.42376925110656" x2="906.4051976795312" y2="213.2719586626452" stroke="#DCE1E5" stroke-width="1.4"/>
<line x1="807.217483632353" y1="278.5744187230808" x2="823.045383269224" y2="258.20965219994724" stroke="#DCE1E5" stroke-width="1.4"/>
<line x1="807.217483632353" y1="278.5744187230808" x2="840.2028480175178" y2="300.0638073415824" stroke="#DCE1E5" stroke-width="1.4"/>
<line x1="740.4148338772793" y1="267.0527605014457" x2="743.6884039111445" y2="259.1913719560149" stroke="#DCE1E5" stroke-width="1.4"/>
<line x1="740.4148338772793" y1="267.0527605014457" x2="737.2097901672512" y2="280.4785177689798" stroke="#DCE1E5" stroke-width="1.4"/>
<line x1="906.4051976795312" y1="213.2719586626452" x2="904.8800183660044" y2="207.90011931547616" stroke="#DCE1E5" stroke-width="1.4"/>
<line x1="906.4051976795312" y1="213.2719586626452" x2="901.3221594192332" y2="203.42376925110656" stroke="#DCE1E5" stroke-width="1.4"/>
<line x1="840.2028480175178" y1="300.0638073415824" x2="780.7462940637082" y2="213.0829748122185" stroke="#E65100" stroke-width="3.2"/>
<line x1="840.2028480175178" y1="300.0638073415824" x2="762.0454095527176" y2="343.0486381976507" stroke="#E65100" stroke-width="3.2"/>
<line x1="840.2028480175178" y1="300.0638073415824" x2="901.3221594192332" y2="203.42376925110656" stroke="#E65100" stroke-width="3.2"/>
<line x1="840.2028480175178" y1="300.0638073415824" x2="862.7563682360098" y2="318.8214925855044" stroke="#E65100" stroke-width="3.2"/>
<circle cx="823.045383269224" cy="258.20965219994724" r="5" fill="#E4E9ED" stroke="#B9C2C9" stroke-width="1.5"/>
<circle cx="762.0454095527176" cy="343.0486381976507" r="5" fill="#E4E9ED" stroke="#B9C2C9" stroke-width="1.5"/>
<circle cx="737.2097901672512" cy="280.4785177689798" r="5" fill="#E4E9ED" stroke="#B9C2C9" stroke-width="1.5"/>
<circle cx="904.8800183660044" cy="207.90011931547616" r="5" fill="#E4E9ED" stroke="#B9C2C9" stroke-width="1.5"/>
<circle cx="840.2028480175178" cy="300.0638073415824" r="5" fill="#E4E9ED" stroke="#B9C2C9" stroke-width="1.5"/>
<circle cx="743.6884039111445" cy="259.1913719560149" r="5" fill="#E4E9ED" stroke="#B9C2C9" stroke-width="1.5"/>
<circle cx="868.2543137512245" cy="271.7475983174044" r="5" fill="#E4E9ED" stroke="#B9C2C9" stroke-width="1.5"/>
<circle cx="872.3122892934553" cy="221.03103179461965" r="5" fill="#E4E9ED" stroke="#B9C2C9" stroke-width="1.5"/>
<circle cx="780.7462940637082" cy="213.0829748122185" r="5" fill="#E4E9ED" stroke="#B9C2C9" stroke-width="1.5"/>
<circle cx="831.1785817137686" cy="352.8987232629148" r="5" fill="#E4E9ED" stroke="#B9C2C9" stroke-width="1.5"/>
<circle cx="847.0005499415515" cy="327.1640283645079" r="5" fill="#E4E9ED" stroke="#B9C2C9" stroke-width="1.5"/>
<circle cx="808.1289908322979" cy="322.32837731100176" r="5" fill="#E4E9ED" stroke="#B9C2C9" stroke-width="1.5"/>
<circle cx="755.1138542649419" cy="244.08262958566203" r="5" fill="#E4E9ED" stroke="#B9C2C9" stroke-width="1.5"/>
<circle cx="862.7563682360098" cy="318.8214925855044" r="5" fill="#E4E9ED" stroke="#B9C2C9" stroke-width="1.5"/>
<circle cx="815.2900142613075" cy="209.08652988734693" r="5" fill="#E4E9ED" stroke="#B9C2C9" stroke-width="1.5"/>
<circle cx="786.1459113906272" cy="230.10110238347485" r="5" fill="#E4E9ED" stroke="#B9C2C9" stroke-width="1.5"/>
<circle cx="788.862670035899" cy="333.2358405249528" r="5" fill="#E4E9ED" stroke="#B9C2C9" stroke-width="1.5"/>
<circle cx="773.5028455648909" cy="346.4607537456357" r="5" fill="#E4E9ED" stroke="#B9C2C9" stroke-width="1.5"/>
<circle cx="901.3221594192332" cy="203.42376925110656" r="5" fill="#E4E9ED" stroke="#B9C2C9" stroke-width="1.5"/>
<circle cx="807.217483632353" cy="278.5744187230808" r="5" fill="#E4E9ED" stroke="#B9C2C9" stroke-width="1.5"/>
<circle cx="740.4148338772793" cy="267.0527605014457" r="5" fill="#E4E9ED" stroke="#B9C2C9" stroke-width="1.5"/>
<circle cx="906.4051976795312" cy="213.2719586626452" r="5" fill="#E4E9ED" stroke="#B9C2C9" stroke-width="1.5"/>
<circle cx="780.7462940637082" cy="213.0829748122185" r="7" fill="#FFF3E0" stroke="#E65100" stroke-width="2.5"/>
<circle cx="762.0454095527176" cy="343.0486381976507" r="7" fill="#FFF3E0" stroke="#E65100" stroke-width="2.5"/>
<circle cx="901.3221594192332" cy="203.42376925110656" r="7" fill="#FFF3E0" stroke="#E65100" stroke-width="2.5"/>
<circle cx="862.7563682360098" cy="318.8214925855044" r="7" fill="#FFF3E0" stroke="#E65100" stroke-width="2.5"/>
<circle cx="840.2028480175178" cy="300.0638073415824" r="11" fill="#FFF3E0" stroke="#E65100" stroke-width="3.5"/>
<rect x="810.5" y="322.3" width="55.5" height="19.4" rx="7" fill="#FFFFFF" fill-opacity="0.9"/>
<text x="838.2028480175178" y="336.5638073415824" text-anchor="middle" font-family="PingFang SC, Hiragino Sans GB, Helvetica, Arial, sans-serif" font-size="12.5" font-weight="700" fill="#E65100">medoid</text>
<text x="830.0" y="388" text-anchor="middle" font-family="PingFang SC, Hiragino Sans GB, Helvetica, Arial, sans-serif" font-size="14" font-weight="400" fill="#666666">扁平单层，不加任何额外结构</text>
<text x="830.0" y="410" text-anchor="middle" font-family="PingFang SC, Hiragino Sans GB, Helvetica, Arial, sans-serif" font-size="14" font-weight="400" fill="#666666">长边由 α 判据自然生成</text>
<text x="56" y="452" text-anchor="start" font-family="PingFang SC, Hiragino Sans GB, Helvetica, Arial, sans-serif" font-size="12.5" font-weight="400" fill="#8A9199">长边来源</text>
<text x="284" y="452" text-anchor="end" font-family="PingFang SC, Hiragino Sans GB, Helvetica, Arial, sans-serif" font-size="13.5" font-weight="700" fill="#666666">分层子采样</text>
<text x="386" y="452" text-anchor="start" font-family="PingFang SC, Hiragino Sans GB, Helvetica, Arial, sans-serif" font-size="12.5" font-weight="400" fill="#8A9199">长边来源</text>
<text x="614" y="452" text-anchor="end" font-family="PingFang SC, Hiragino Sans GB, Helvetica, Arial, sans-serif" font-size="13.5" font-weight="700" fill="#666666">搜索访问路径</text>
<text x="716" y="452" text-anchor="start" font-family="PingFang SC, Hiragino Sans GB, Helvetica, Arial, sans-serif" font-size="12.5" font-weight="400" fill="#8A9199">长边来源</text>
<text x="944" y="452" text-anchor="end" font-family="PingFang SC, Hiragino Sans GB, Helvetica, Arial, sans-serif" font-size="13.5" font-weight="700" fill="#666666">α 放松判据</text>
<text x="56" y="478" text-anchor="start" font-family="PingFang SC, Hiragino Sans GB, Helvetica, Arial, sans-serif" font-size="12.5" font-weight="400" fill="#8A9199">入口点</text>
<text x="284" y="478" text-anchor="end" font-family="PingFang SC, Hiragino Sans GB, Helvetica, Arial, sans-serif" font-size="13.5" font-weight="700" fill="#666666">顶层随机节点</text>
<text x="386" y="478" text-anchor="start" font-family="PingFang SC, Hiragino Sans GB, Helvetica, Arial, sans-serif" font-size="12.5" font-weight="400" fill="#8A9199">入口点</text>
<text x="614" y="478" text-anchor="end" font-family="PingFang SC, Hiragino Sans GB, Helvetica, Arial, sans-serif" font-size="13.5" font-weight="700" fill="#666666">medoid 固定</text>
<text x="716" y="478" text-anchor="start" font-family="PingFang SC, Hiragino Sans GB, Helvetica, Arial, sans-serif" font-size="12.5" font-weight="400" fill="#8A9199">入口点</text>
<text x="944" y="478" text-anchor="end" font-family="PingFang SC, Hiragino Sans GB, Helvetica, Arial, sans-serif" font-size="13.5" font-weight="700" fill="#666666">medoid 固定</text>
<text x="56" y="504" text-anchor="start" font-family="PingFang SC, Hiragino Sans GB, Helvetica, Arial, sans-serif" font-size="12.5" font-weight="400" fill="#8A9199">增量插入</text>
<text x="284" y="504" text-anchor="end" font-family="PingFang SC, Hiragino Sans GB, Helvetica, Arial, sans-serif" font-size="13.5" font-weight="700" fill="#666666">支持</text>
<text x="386" y="504" text-anchor="start" font-family="PingFang SC, Hiragino Sans GB, Helvetica, Arial, sans-serif" font-size="12.5" font-weight="400" fill="#8A9199">增量插入</text>
<text x="614" y="504" text-anchor="end" font-family="PingFang SC, Hiragino Sans GB, Helvetica, Arial, sans-serif" font-size="13.5" font-weight="700" fill="#666666">不支持</text>
<text x="716" y="504" text-anchor="start" font-family="PingFang SC, Hiragino Sans GB, Helvetica, Arial, sans-serif" font-size="12.5" font-weight="400" fill="#8A9199">增量插入</text>
<text x="944" y="504" text-anchor="end" font-family="PingFang SC, Hiragino Sans GB, Helvetica, Arial, sans-serif" font-size="13.5" font-weight="700" fill="#666666">不支持</text>
<text x="56" y="530" text-anchor="start" font-family="PingFang SC, Hiragino Sans GB, Helvetica, Arial, sans-serif" font-size="12.5" font-weight="400" fill="#8A9199">面向介质</text>
<text x="284" y="530" text-anchor="end" font-family="PingFang SC, Hiragino Sans GB, Helvetica, Arial, sans-serif" font-size="13.5" font-weight="700" fill="#666666">内存</text>
<text x="386" y="530" text-anchor="start" font-family="PingFang SC, Hiragino Sans GB, Helvetica, Arial, sans-serif" font-size="12.5" font-weight="400" fill="#8A9199">面向介质</text>
<text x="614" y="530" text-anchor="end" font-family="PingFang SC, Hiragino Sans GB, Helvetica, Arial, sans-serif" font-size="13.5" font-weight="700" fill="#666666">内存</text>
<text x="716" y="530" text-anchor="start" font-family="PingFang SC, Hiragino Sans GB, Helvetica, Arial, sans-serif" font-size="12.5" font-weight="400" fill="#8A9199">面向介质</text>
<text x="944" y="530" text-anchor="end" font-family="PingFang SC, Hiragino Sans GB, Helvetica, Arial, sans-serif" font-size="13.5" font-weight="700" fill="#666666">SSD</text>
<text x="500.0" y="596" text-anchor="middle" font-family="PingFang SC, Hiragino Sans GB, Helvetica, Arial, sans-serif" font-size="16" font-weight="700" fill="#333333">同一个剪枝判据，换个 α、换个候选来源，就换了优化目标</text>
<text x="500" y="624" text-anchor="middle" font-family="PingFang SC, Hiragino Sans GB, Helvetica, Arial, sans-serif" font-size="14" font-weight="400" fill="#8A9199">内存图优化「访问了多少点」，磁盘图优化「串行往返了多少次」</text>
</svg>